<?xml version="1.0" standalone="no"?>
<!DOCTYPE svg PUBLIC "-//W3C//DTD SVG 20010904//EN"
 "http://www.w3.org/TR/2001/REC-SVG-20010904/DTD/svg10.dtd">
<svg version="1.0" xmlns="http://www.w3.org/2000/svg"
 width="16.000000pt" height="16.000000pt" viewBox="0 0 16.000000 16.000000"
 preserveAspectRatio="xMidYMid meet">
<metadata>
Created by potrace 1.11, written by Peter Selinger 2001-2013
</metadata>
<g transform="translate(0.000000,16.000000) scale(0.001563,-0.001563)"
fill="#000000" stroke="none">
<path d="M2358 7835 c-2 -1 -39 -5 -83 -8 -154 -11 -331 -50 -471 -103 -134
-50 -244 -118 -244 -150 0 -14 34 -37 43 -28 5 5 134 38 192 49 137 25 231 38
365 51 52 5 351 5 380 0 14 -3 50 -7 81 -11 31 -3 66 -7 77 -10 11 -2 37 -6
57 -9 157 -25 428 -119 565 -195 25 -13 54 -29 65 -35 48 -26 156 -104 233
-169 148 -124 256 -287 317 -479 72 -227 69 -515 -7 -743 -27 -82 -114 -261
-138 -285 -3 -3 -25 -32 -50 -65 -24 -33 -49 -66 -55 -73 -41 -54 -256 -261
-325 -314 -200 -153 -592 -358 -848 -443 -29 -9 -56 -23 -58 -30 -4 -10 -12
-10 -36 3 l-31 15 39 20 c91 46 394 224 450 263 96 68 164 139 164 170 0 26
-2 26 -42 21 -59 -8 -560 -218 -593 -248 -5 -5 -17 -9 -27 -9 -10 0 -18 -4
-18 -10 0 -5 -8 -10 -17 -10 -10 0 -31 -8 -48 -18 -16 -10 -48 -25 -70 -34
-22 -9 -76 -32 -120 -52 -119 -55 -118 -54 -142 -61 -13 -4 -23 -14 -23 -24 0
-14 16 -19 88 -29 109 -16 246 -80 377 -178 84 -63 336 -310 780 -765 207
-213 363 -345 528 -447 81 -51 222 -114 295 -133 46 -11 54 -11 68 3 22 22 11
49 -39 96 -23 21 -71 65 -106 98 -35 32 -118 122 -184 199 -123 143 -306 331
-410 419 -32 28 -70 61 -85 75 -81 76 -271 245 -311 277 -13 10 -31 26 -40 35
-35 34 -161 130 -258 196 l-102 70 77 13 c206 33 486 122 664 211 340 171 629
435 792 723 75 131 147 330 171 471 3 22 8 121 10 220 4 197 -6 269 -60 430
-101 298 -329 577 -620 755 -228 140 -555 246 -845 275 -65 7 -367 15 -372 10z"/>
<path d="M2238 7606 c-1 -2 -52 -6 -113 -10 -178 -10 -238 -20 -410 -65 -133
-35 -168 -48 -291 -106 -180 -84 -321 -194 -427 -333 -52 -69 -61 -90 -46
-108 20 -24 49 -15 129 41 67 46 291 165 325 172 5 1 51 16 100 33 98 34 291
84 370 95 220 31 505 40 660 21 608 -75 986 -327 1114 -741 47 -152 53 -318
16 -500 -4 -16 -21 -62 -39 -101 -47 -99 -49 -109 -31 -128 22 -21 40 -11 99
56 130 147 215 473 181 698 -27 187 -116 360 -254 499 -64 65 -153 141 -164
141 -3 0 -29 16 -58 36 -146 99 -448 213 -659 249 -19 3 -42 8 -50 10 -8 2
-37 6 -65 10 -27 3 -66 8 -85 10 -19 3 -89 8 -155 11 -66 3 -125 7 -132 9 -6
2 -13 2 -15 1z"/>
<path d="M2217 7264 c-1 -1 -56 -5 -122 -8 -65 -4 -122 -9 -125 -11 -3 -1 -30
-5 -60 -9 -127 -14 -409 -82 -485 -116 -11 -5 -44 -19 -74 -30 -206 -79 -509
-277 -499 -327 6 -31 36 -26 159 27 121 52 350 131 425 148 l41 9 -33 -126
c-75 -287 -102 -383 -209 -716 -58 -184 -77 -245 -134 -437 -61 -208 -155
-620 -185 -813 -15 -99 -19 -128 -35 -275 -9 -75 -7 -447 2 -485 2 -11 8 -46
12 -79 18 -152 75 -350 138 -486 28 -60 95 -176 117 -203 6 -7 28 -35 50 -64
38 -50 70 -71 90 -58 18 11 11 46 -19 99 -28 48 -82 175 -91 211 -1 6 -7 21
-12 35 -13 34 -45 189 -58 280 -24 170 -32 436 -17 620 8 107 40 334 57 415 5
22 12 56 15 75 3 19 8 43 11 52 3 9 6 25 8 35 3 14 25 106 51 213 9 37 78 271
130 440 112 366 216 751 251 925 2 11 6 31 9 45 12 53 45 286 45 315 0 26 4
31 26 33 23 2 25 -1 20 -26 -3 -15 -8 -49 -11 -77 -6 -57 -34 -255 -40 -288
-3 -11 -7 -37 -10 -57 -3 -20 -7 -45 -9 -55 -2 -11 -7 -40 -11 -65 -4 -25 -9
-54 -11 -65 -5 -22 -11 -60 -19 -105 -17 -98 -81 -371 -109 -470 -35 -120 -65
-240 -91 -375 -9 -44 -18 -89 -20 -100 -35 -173 -59 -350 -59 -423 1 -66 53
-60 95 11 38 63 120 264 215 527 25 69 56 154 69 190 75 205 190 600 221 755
2 11 8 43 14 70 5 28 12 75 15 105 3 30 8 73 10 95 7 56 7 312 0 358 l-5 37
43 1 c130 3 204 2 312 -4 66 -4 129 -9 140 -11 11 -2 43 -7 70 -10 141 -20
314 -78 444 -149 290 -158 438 -394 381 -607 -17 -67 -84 -197 -135 -265 -53
-71 -186 -208 -276 -285 -35 -30 -66 -57 -69 -60 -51 -58 -1020 -700 -1006
-667 8 21 104 320 117 367 7 25 14 50 15 55 87 304 159 667 179 905 3 36 8 85
11 109 12 103 4 307 -15 398 -25 118 -62 203 -90 203 -11 0 -22 -4 -25 -8 -2
-4 -7 -57 -11 -117 -3 -61 -7 -126 -10 -145 -2 -19 -7 -60 -10 -90 -3 -30 -8
-64 -10 -75 -3 -11 -7 -37 -10 -57 -15 -111 -80 -365 -195 -763 -48 -166 -70
-237 -165 -535 -49 -154 -125 -444 -125 -477 0 -27 25 -46 90 -67 221 -73 656
-388 1055 -766 181 -170 466 -378 532 -387 46 -6 61 13 41 50 -23 45 -264 354
-394 505 -113 132 -418 427 -489 474 -167 109 -435 222 -547 231 -34 2 -18 18
57 52 143 67 570 282 655 330 327 188 566 361 755 550 55 55 118 127 140 160
22 33 43 62 46 65 18 14 92 179 110 246 20 72 28 204 15 259 -44 199 -100 302
-245 446 -112 112 -203 171 -386 254 -107 49 -286 90 -437 101 -90 6 -297 12
-301 8z"/>
<path d="M9335 7118 c-45 -17 -210 -113 -300 -176 -71 -49 -111 -79 -194 -147
-242 -197 -560 -518 -717 -725 -27 -36 -52 -67 -55 -70 -10 -8 -111 -148 -181
-250 -292 -425 -510 -934 -554 -1294 -3 -23 -7 -54 -10 -71 -9 -56 -12 -359
-4 -415 4 -30 11 -75 14 -100 7 -44 31 -140 43 -170 3 -8 7 -20 9 -27 5 -28
75 -162 112 -216 66 -98 240 -262 302 -285 8 -3 17 -8 20 -11 11 -13 108 -60
175 -84 106 -39 231 -68 355 -83 65 -7 286 -7 350 1 322 39 589 157 780 345
58 58 160 187 160 203 0 4 14 30 31 59 17 29 32 58 33 63 1 6 4 15 7 20 10 17
48 137 59 190 35 154 32 357 -6 527 -70 314 -284 548 -564 617 -105 26 -266
20 -368 -15 -193 -65 -391 -254 -491 -467 -43 -91 -49 -126 -26 -143 26 -20
57 3 135 98 201 247 397 363 597 351 258 -14 470 -243 509 -550 25 -192 -1
-374 -76 -530 -126 -265 -335 -436 -625 -512 -198 -52 -483 -42 -690 26 -132
42 -325 159 -390 235 -94 108 -149 213 -185 348 -31 120 -36 374 -9 550 104
696 510 1358 1326 2160 402 396 513 512 509 534 -3 25 -36 30 -81 14z"/>
<path d="M5705 7049 c-108 -16 -133 -22 -218 -50 -429 -142 -744 -544 -805
-1029 -13 -105 -4 -413 13 -441 3 -4 7 -24 11 -45 23 -148 119 -344 218 -447
207 -214 450 -256 791 -137 50 18 113 44 142 60 59 31 58 35 9 -72 -14 -31
-26 -59 -26 -63 0 -10 -177 -360 -204 -403 -14 -23 -26 -44 -26 -46 0 -2 -29
-56 -65 -119 -36 -63 -65 -120 -65 -125 0 -6 -3 -12 -7 -14 -8 -3 -24 -32
-147 -270 -68 -132 -82 -178 -56 -178 5 0 15 -3 23 -6 44 -17 397 422 589 731
243 392 405 806 445 1135 15 126 7 367 -15 465 -62 277 -224 414 -487 413
-107 0 -164 -12 -250 -54 -199 -96 -333 -337 -338 -609 -2 -75 1 -89 16 -99
23 -14 27 -7 91 149 79 191 126 266 213 336 63 50 123 68 218 65 175 -6 258
-86 288 -280 29 -184 9 -403 -58 -635 -53 -183 -52 -181 -137 -215 -40 -17
-89 -36 -108 -45 -19 -8 -39 -16 -45 -17 -5 -1 -39 -9 -75 -18 -74 -18 -211
-21 -291 -6 -75 14 -187 72 -244 128 -109 107 -189 277 -212 450 -11 88 -8
299 7 382 70 412 350 740 717 841 116 31 326 35 453 7 286 -62 498 -272 609
-603 29 -87 35 -109 47 -185 3 -19 9 -55 14 -79 11 -60 10 -359 -1 -441 -18
-126 -21 -146 -34 -210 -48 -227 -198 -593 -352 -864 -46 -80 -211 -336 -223
-346 -4 -3 -26 -32 -51 -65 -24 -33 -46 -62 -49 -65 -3 -3 -25 -30 -50 -60
-55 -67 -55 -66 -166 -181 -190 -196 -351 -325 -619 -495 -72 -45 -313 -169
-379 -194 -14 -5 -32 -21 -42 -35 -21 -33 -4 -59 35 -50 14 3 37 7 51 10 52
10 215 58 224 66 6 5 16 9 24 9 24 0 234 104 332 165 96 60 284 198 375 276
192 165 420 415 581 636 79 108 264 400 264 416 0 3 16 33 35 66 19 34 34 64
35 66 0 3 11 29 24 57 56 125 66 150 101 249 42 119 91 316 101 404 3 33 9 69
11 80 10 38 12 441 3 505 -6 36 -12 82 -15 103 -15 117 -81 330 -137 442 -80
159 -218 324 -353 421 -159 113 -366 172 -597 171 -62 0 -135 -4 -163 -8z"/>
<path d="M9205 6803 c-161 -109 -366 -309 -586 -573 -220 -263 -388 -496 -513
-710 -37 -63 -72 -122 -77 -130 -27 -43 -171 -347 -203 -429 -65 -165 -122
-352 -140 -462 -3 -19 -10 -61 -16 -94 -6 -33 -13 -118 -16 -188 -11 -311 78
-549 273 -726 134 -121 309 -180 543 -180 130 0 172 10 178 41 5 28 -24 44
-110 62 -218 45 -352 109 -469 225 -134 134 -170 241 -164 486 5 172 5 172 51
415 3 14 9 39 14 55 5 17 19 62 31 100 51 164 201 492 308 673 17 29 31 55 31
57 0 9 163 265 258 405 126 185 213 305 337 460 332 419 377 487 345 525 -17
21 -29 19 -75 -12z"/>
<path d="M5720 6733 c-152 -22 -255 -58 -356 -126 -210 -140 -335 -331 -404
-617 -20 -79 -23 -122 -23 -260 -1 -146 2 -176 25 -261 84 -312 273 -475 516
-447 71 8 94 21 90 52 -4 26 -38 42 -106 50 -71 8 -153 48 -193 93 -75 86
-120 245 -118 414 1 94 22 253 42 324 13 45 31 92 38 100 5 5 9 17 9 27 0 10
5 18 10 18 6 0 10 5 10 10 0 14 59 105 95 147 15 18 51 51 79 73 121 93 216
123 386 124 192 0 302 -40 416 -151 73 -71 151 -220 170 -323 3 -14 7 -32 9
-40 3 -8 7 -40 10 -70 4 -30 9 -66 11 -80 3 -14 8 -137 10 -274 3 -173 8 -252
16 -257 31 -20 57 24 93 155 15 54 29 110 31 125 3 14 7 32 9 38 16 45 24 328
12 453 -28 324 -211 572 -488 664 -98 32 -306 53 -399 39z"/>
<path d="M8833 6013 c-14 -16 -46 -55 -71 -88 -25 -33 -49 -62 -52 -65 -31
-26 -213 -302 -316 -480 -61 -104 -214 -400 -214 -413 0 -3 -13 -35 -30 -70
-16 -36 -30 -71 -30 -79 0 -8 -4 -18 -9 -23 -27 -30 -115 -334 -136 -470 -13
-86 -14 -279 -1 -336 45 -203 194 -344 426 -404 93 -24 270 -22 368 5 195 54
313 164 406 381 21 50 44 196 41 267 -8 165 -74 301 -155 317 -67 13 -81 -22
-43 -102 115 -243 -111 -625 -377 -637 -134 -6 -294 32 -346 82 -123 117 -96
551 56 907 69 161 150 325 290 585 179 333 286 579 273 629 -8 30 -48 27 -80
-6z"/>
<path d="M8950 4783 c-88 -12 -218 -67 -295 -126 -63 -48 -134 -119 -158 -157
-11 -19 -24 -37 -27 -40 -16 -13 -40 -83 -46 -132 -7 -58 6 -98 30 -98 8 0 44
35 82 77 224 250 409 343 574 288 101 -34 184 -151 236 -336 33 -115 40 -129
64 -129 35 0 52 42 51 125 -1 181 -83 357 -210 451 -69 51 -215 88 -301 77z"/>
<path d="M1318 4682 c-28 -3 -36 -24 -20 -49 4 -6 44 -30 89 -52 45 -22 84
-44 86 -48 3 -4 -1 -36 -8 -71 -22 -104 -29 -156 -40 -302 -4 -47 -8 -105 -10
-130 -20 -246 -17 -313 13 -325 40 -15 63 43 222 553 l41 133 27 -21 c89 -70
192 -167 354 -335 521 -539 615 -628 802 -756 245 -168 503 -273 776 -316 61
-10 384 -10 440 0 63 11 154 34 230 58 73 24 108 53 88 76 -11 14 -36 14 -235
-2 -24 -2 -43 0 -43 5 0 4 31 10 70 13 110 9 223 44 256 78 23 24 26 33 18 47
-12 18 -35 20 -144 8 -60 -7 -251 -7 -346 -1 -66 4 -132 15 -246 41 -126 28
-113 28 -131 9 -28 -27 -8 -54 67 -90 112 -53 268 -90 406 -95 34 -1 40 -3 25
-9 -11 -5 -22 -7 -25 -6 -3 2 -36 6 -75 9 -38 3 -81 8 -95 11 -13 2 -42 7 -65
10 -22 4 -69 13 -105 21 -36 9 -74 17 -86 20 -11 2 -63 18 -115 35 -367 121
-576 260 -914 608 -435 450 -640 629 -855 749 -142 80 -350 137 -452 124z"/>
<path d="M1234 4250 c-21 -8 -28 -28 -50 -135 -3 -16 -8 -122 -11 -235 -4
-182 -3 -217 16 -307 33 -160 55 -208 131 -283 47 -48 77 -70 109 -79 40 -12
46 -11 58 5 11 14 10 20 -1 33 -61 72 -134 342 -151 561 -3 41 -8 89 -10 105
-2 17 -7 66 -10 110 -4 44 -11 100 -17 125 -5 25 -11 54 -14 64 -6 31 -26 45
-50 36z"/>
<path d="M5547 3793 c-272 -282 -269 -280 -699 -569 -215 -144 -251 -174 -241
-200 8 -21 44 -21 128 3 152 44 292 110 465 221 153 98 199 141 354 332 143
176 212 307 175 331 -37 23 -60 9 -182 -118z"/>
</g>
</svg>
